<?xml version="1.0" encoding="UTF-8"?>
<svg id="wasp" xmlns="http://www.w3.org/2000/svg" xmlns:xlink="http://www.w3.org/1999/xlink" viewBox="0 0 496.36 464.49">
  <defs>
    <style>
      .cls-1 {
        fill: #ffc107;
      }

      .cls-2 {
        fill: none;
      }

      .cls-3 {
        fill: #ff9800;
      }

      .cls-4 {
        fill: #6f912f;
      }

      .cls-5 {
        clip-path: url(#clippath);
      }
    </style>
    <clipPath id="clippath">
      <path class="cls-2" d="M473.56,358.57c-41.93,80.95-93,96.1-183.85,103.6-110.43,9.11-236.87-40.35-237.93-155.96-1.14-124.66,121.31-167.18,236.79-188.41,130.79-24.05,261.73,92.62,184.99,240.77Z"/>
    </clipPath>
  </defs>
  <g id="wings">
    <g id="wings-2" data-name="wings">
      <path id="left" class="cls-4" d="M135.31,128.65c-14.36-38.51-19.92-95.89,42.83-92.01,29.81,1.84,74.75,69.18,74.75,99.04s-21.81,44.98-51.41,48.95c-49.23,6.6-53.65-22.4-66.17-55.99Z"/>
      <path id="right" class="cls-4" d="M260.68,61.48c21.77-36.14,66.53-91.97,103.32-40.98,17.48,24.22-3.11,143.29-26.2,162.22-23.09,18.94-55,9.56-76.84-10.81-36.32-33.88-17.07-82.53-.27-110.43Z"/>
    </g>
    <g id="twigs">
      <path d="M309.1,97.52c-9.94,39.03-14.05,70.06-16.83,68.24-5.03-3.29-6.09-31.58,5.31-71.99,10.15-35.97,27.47-70.18,30.69-69.36,3.22.82-9.23,34.08-19.17,73.11Z"/>
      <path d="M213.32,132.1c24.07,32.3,45.59,55.02,42.43,56.04-5.72,1.84-28.37-15.15-52.6-49.44-21.56-30.53-37.24-65.53-34.58-67.51s20.67,28.62,44.74,60.91Z"/>
      <ellipse cx="187.05" cy="132.63" rx="4.93" ry="26.56" transform="translate(-.01 265.25) rotate(-70.67)"/>
      <path d="M322.25,71.77c-1.34-1.34,2.95-7.8,9.59-14.43,6.63-6.63,14.26-11.59,15.59-10.25,1.34,1.34-4.12,8.46-10.75,15.09-6.63,6.63-13.09,10.92-14.43,9.59Z"/>
      <path d="M178.26,113.63c-.69,1.76-8.33.42-17.06-3-8.73-3.42-16.33-8.42-15.64-10.18s9.4.38,18.14,3.8c8.73,3.42,15.25,7.62,14.57,9.38Z"/>
      <path d="M311.75,106.09c-1.53-1.53,3.6-9.13,11.45-16.98s22.78-19.41,24.31-17.88-10.92,15.56-18.77,23.41c-7.85,7.85-15.45,12.98-16.98,11.45Z"/>
      <path d="M208.81,138.74c-2.71-.39-3.7-9.07-2.2-19.37s7.02-27.25,9.74-26.85,2.47,37.59.97,47.9c-1.5,10.3-5.79-1.28-8.5-1.68Z"/>
      <path d="M291.28,59.31c-1.57-1.05,1.37-8.23,6.57-16.03,5.2-7.8,11.71-14.16,13.28-13.11,1.57,1.05-2.38,9.1-7.58,16.91-5.2,7.8-10.7,13.28-12.27,12.23Z"/>
    </g>
  </g>
  <g id="stinger">
    <polygon class="cls-3" points="0 314.87 57.08 327.34 54.98 295.11 0 314.87"/>
  </g>
  <g id="body">
    <path class="cls-1" d="M472.42,358.19c-41.93,80.95-93,96.1-183.85,103.6-110.43,9.11-236.87-40.35-237.93-155.96-1.14-124.66,121.31-167.18,236.79-188.41,130.79-24.05,261.73,92.62,184.99,240.77Z"/>
  </g>
  <g id="strips">
    <g class="cls-5">
      <polygon points="130.12 463.02 90.81 464.49 83 87.92 122.32 86.45 130.12 463.02"/>
      <polygon points="206.67 462.79 167.36 464.26 159.56 87.7 198.87 86.23 206.67 462.79"/>
      <polygon points="283.22 462.56 243.91 464.03 236.11 87.47 275.42 86 283.22 462.56"/>
    </g>
  </g>
  <g id="eyes">
    <g id="eyes-2" data-name="eyes">
      <ellipse cx="354.05" cy="300.94" rx="16.49" ry="22.25"/>
      <ellipse cx="419.08" cy="287.66" rx="16.18" ry="21.96"/>
    </g>
  </g>
</svg>