<?xml version="1.0" encoding="UTF-8"?>
<svg id="wasp" xmlns="http://www.w3.org/2000/svg" xmlns:xlink="http://www.w3.org/1999/xlink" viewBox="0 0 619.92 163.4">
  <defs>
    <style>
      .cls-1 {
        fill: #ffc107;
      }

      .cls-2 {
        font-family: Roboto-Bold, Roboto;
        font-size: 60px;
        font-weight: 700;
        letter-spacing: -.03em;
      }

      .cls-3 {
        fill: none;
      }

      .cls-4 {
        fill: #ff9800;
      }

      .cls-5 {
        fill: #6f912f;
      }

      .cls-6 {
        clip-path: url(#clippath);
      }
    </style>
    <clipPath id="clippath">
      <path class="cls-3" d="M166.72,126.23c-14.76,28.5-32.74,33.83-64.72,36.47-38.87,3.21-83.39-14.2-83.76-54.91-.4-43.88,42.71-58.85,83.36-66.33,46.05-8.47,92.14,32.61,65.13,84.76Z"/>
    </clipPath>
  </defs>
  <g id="wings">
    <g id="wings-2" data-name="wings">
      <path id="left" class="cls-5" d="M47.64,45.29c-5.06-13.56-7.01-33.76,15.08-32.39,10.49.65,26.32,24.35,26.32,34.87s-7.68,15.84-18.1,17.23c-17.33,2.32-18.89-7.89-23.29-19.71Z"/>
      <path id="right" class="cls-5" d="M91.77,21.64c7.66-12.72,23.42-32.38,36.37-14.43,6.15,8.53-1.09,50.44-9.22,57.11-8.13,6.67-19.36,3.36-27.05-3.81-12.79-11.93-6.01-29.06-.1-38.87Z"/>
    </g>
    <g id="twigs">
      <path d="M108.82,34.33c-3.5,13.74-4.95,24.67-5.93,24.03-1.77-1.16-2.14-11.12,1.87-25.34,3.57-12.66,9.67-24.71,10.81-24.42s-3.25,12-6.75,25.74Z"/>
      <path d="M75.1,46.5c8.47,11.37,16.05,19.37,14.94,19.73-2.02.65-9.99-5.33-18.52-17.41-7.59-10.75-13.11-23.07-12.17-23.77s7.28,10.07,15.75,21.44Z"/>
      <ellipse cx="65.85" cy="46.69" rx="1.74" ry="9.35" transform="translate(0 93.38) rotate(-70.67)"/>
      <path d="M113.45,25.26c-.47-.47,1.04-2.75,3.37-5.08s5.02-4.08,5.49-3.61-1.45,2.98-3.78,5.31-4.61,3.85-5.08,3.37Z"/>
      <path d="M62.75,40c-.24.62-2.93.15-6.01-1.06s-5.75-2.96-5.51-3.58,3.31.13,6.38,1.34,5.37,2.68,5.13,3.3Z"/>
      <path d="M109.75,37.35c-.54-.54,1.27-3.21,4.03-5.98,2.76-2.76,8.02-6.83,8.56-6.29s-3.85,5.48-6.61,8.24c-2.76,2.76-5.44,4.57-5.98,4.03Z"/>
      <path d="M73.51,48.84c-.96-.14-1.3-3.19-.78-6.82s2.47-9.59,3.43-9.45.87,13.23.34,16.86-2.04-.45-2.99-.59Z"/>
      <path d="M102.54,20.88c-.55-.37.48-2.9,2.31-5.64s4.12-4.98,4.68-4.61-.84,3.21-2.67,5.95-3.77,4.67-4.32,4.3Z"/>
    </g>
  </g>
  <g id="stinger">
    <polygon class="cls-4" points="0 110.85 20.09 115.24 19.36 103.89 0 110.85"/>
  </g>
  <g id="body">
    <path class="cls-1" d="M166.31,126.1c-14.76,28.5-32.74,33.83-64.72,36.47-38.87,3.21-83.39-14.2-83.76-54.91-.4-43.88,42.71-58.85,83.36-66.33,46.05-8.47,92.14,32.61,65.13,84.76Z"/>
  </g>
  <g id="strips">
    <g class="cls-6">
      <polygon points="45.8 162.88 31.96 163.4 29.22 30.95 43.06 30.44 45.8 162.88"/>
      <polygon points="72.75 162.8 58.91 163.32 56.17 30.87 70.01 30.35 72.75 162.8"/>
      <polygon points="99.7 162.72 85.86 163.24 83.12 30.79 96.96 30.27 99.7 162.72"/>
    </g>
  </g>
  <g id="eyes">
    <g id="eyes-2" data-name="eyes">
      <ellipse cx="124.64" cy="105.95" rx="5.8" ry="7.83"/>
      <ellipse cx="147.54" cy="101.27" rx="5.7" ry="7.73"/>
    </g>
  </g>
  <text class="cls-2" transform="translate(186.03 125.95)"><tspan x="0" y="0">PyWebTransport</tspan></text>
</svg>